<?xml version="1.0" encoding="utf-8"?>
<!-- Generator: Adobe Illustrator 21.0.0, SVG Export Plug-In . SVG Version: 6.00 Build 0)  -->
<svg version="1.1" id="Layer_1" xmlns="http://www.w3.org/2000/svg" xmlns:xlink="http://www.w3.org/1999/xlink" x="0px" y="0px"
	 viewBox="0 0 42.5 28.4" style="enable-background:new 0 0 42.5 28.4;" xml:space="preserve">
<style type="text/css">
	.st0{fill:#FFFFFF;stroke:#58595B;stroke-width:0.5;stroke-miterlimit:10;}
	.st1{fill:none;stroke:#565555;stroke-width:0.8;stroke-miterlimit:10;}
	.st2{fill:#565555;}
	.st3{fill:#FFFFFF;stroke:#58595B;stroke-width:0.2;stroke-miterlimit:10;}
	.st4{fill:#58595B;}
</style>
<rect x="36.2" y="2.1" class="st0" width="2.2" height="1.8"/>
<path class="st1" d="M29.2,23.1H7.3c-1.1,0-2.1-1-2.1-2.1V7.7c0-1.1,1-2.1,2.1-2.1h21.9c1.1,0,2.1,1,2.1,2.1v13.4
	C31.3,22.2,30.3,23.1,29.2,23.1z"/>
<rect x="7.5" y="8.5" class="st2" width="21.5" height="0.9"/>
<rect x="7.5" y="11.7" class="st2" width="21.5" height="0.9"/>
<polygon class="st3" points="35.6,23.9 37.2,26.7 38.9,23.9 "/>
<rect x="8.1" y="15.3" class="st0" width="20.3" height="3.9"/>
<rect x="35.7" y="4" class="st0" width="3" height="19.8"/>
<polygon class="st4" points="36.7,25.8 37.6,25.8 37.2,26.5 "/>
</svg>
