<?xml version="1.0" encoding="utf-8"?>
<!-- Generator: Adobe Illustrator 21.0.0, SVG Export Plug-In . SVG Version: 6.00 Build 0)  -->
<svg version="1.1" id="Layer_1" xmlns="http://www.w3.org/2000/svg" xmlns:xlink="http://www.w3.org/1999/xlink" x="0px" y="0px"
	 viewBox="0 0 42.5 28.4" style="enable-background:new 0 0 42.5 28.4;" xml:space="preserve">
<style type="text/css">
	.st0{fill:none;stroke:#565555;stroke-width:0.8;stroke-miterlimit:10;}
	.st1{fill:#3A3A3A;}
	.st2{fill:none;stroke:#3A3A3A;stroke-width:0.2;stroke-miterlimit:10;}
</style>
<path class="st0" d="M37.4,17.4H6.1c-0.9,0-1.7-0.8-1.7-1.7V8.2c0-0.9,0.8-1.7,1.7-1.7h31.1c0.9,0,1.7,0.8,1.7,1.7v7.4
	C39.2,16.6,38.4,17.4,37.4,17.4z"/>
<polygon class="st1" points="9.5,8.9 10.4,10.9 12.6,11.2 11,12.8 11.5,15 9.5,13.9 7.6,15 7.9,12.8 6.3,11.2 8.5,10.9 "/>
<polygon class="st1" points="15.9,8.9 16.9,10.9 19.1,11.2 17.5,12.8 17.8,15 15.9,13.9 13.9,15 14.4,12.8 12.6,11.2 14.8,10.9 "/>
<polygon class="st1" points="22.3,8.9 23.4,10.9 25.6,11.2 24,12.8 24.3,15 22.3,13.9 20.4,15 20.7,12.8 19.1,11.2 21.3,10.9 "/>
<polygon class="st2" points="28.4,9.2 29.2,10.9 31.3,11.2 29.8,12.7 30.2,14.5 28.4,13.6 26.7,14.5 27,12.7 25.6,11.2 27.5,10.9 
	"/>
<polygon class="st2" points="34.4,9.2 35.4,10.9 37.3,11.2 35.8,12.7 36.2,14.5 34.4,13.6 32.7,14.5 33,12.7 31.6,11.2 33.6,10.9 
	"/>
</svg>
