<?xml version="1.0" encoding="utf-8"?>
<!-- Generator: Adobe Illustrator 21.0.0, SVG Export Plug-In . SVG Version: 6.00 Build 0)  -->
<svg version="1.1" id="Layer_1" xmlns="http://www.w3.org/2000/svg" xmlns:xlink="http://www.w3.org/1999/xlink" x="0px" y="0px"
	 viewBox="0 0 42.5 28.4" style="enable-background:new 0 0 42.5 28.4;" xml:space="preserve">
<style type="text/css">
	.st0{fill:#FFFFFF;stroke:#58595B;stroke-width:0.5;stroke-miterlimit:10;}
	.st1{fill:#FFFFFF;stroke:#58595B;stroke-width:0.2;stroke-miterlimit:10;}
	.st2{fill:#58595B;}
	.st3{fill:none;stroke:#58595B;stroke-width:0.5;stroke-miterlimit:10;}
</style>
<rect x="9.6" y="7.1" class="st0" width="1.7" height="1.4"/>
<polygon class="st1" points="9.1,24.3 10.4,26.6 11.7,24.3 "/>
<rect x="9.2" y="8.5" class="st0" width="2.5" height="15.7"/>
<polygon class="st2" points="10,26 10.7,26 10.4,26.4 "/>
<path class="st3" d="M17.6,22.9c0,0,0.1,3.3-2.2,3.1h18.3c0,0,2.2-1,1.6-3.1H17.6z"/>
<path class="st3" d="M15.3,26c0,0-1.4,0.4-1.6-3.1V5c0,0-0.4-2.7-1.5-3.1h16.5c0,0,1.7,0.4,2,2.1v18.9H17.6
	C17.6,22.9,17.4,26.2,15.3,26z"/>
<path class="st3" d="M10.4,1.9c0,0-1.5,0.9-1,3.1h4.3C13.6,5,13.2,1.4,10.4,1.9z"/>
<rect x="19.5" y="7.6" class="st2" width="5.8" height="0.9"/>
<rect x="16.5" y="12.7" class="st2" width="11.5" height="0.9"/>
<rect x="16.7" y="16.2" class="st2" width="11.5" height="0.9"/>
<rect x="16.5" y="19" class="st2" width="11.5" height="0.9"/>
</svg>
