<?xml version="1.0" encoding="utf-8"?>
<!-- Generator: Adobe Illustrator 21.0.0, SVG Export Plug-In . SVG Version: 6.00 Build 0)  -->
<svg version="1.1" id="Layer_1" xmlns="http://www.w3.org/2000/svg" xmlns:xlink="http://www.w3.org/1999/xlink" x="0px" y="0px"
	 viewBox="0 0 42.5 28.4" style="enable-background:new 0 0 42.5 28.4;" xml:space="preserve">
<style type="text/css">
	.st0{fill:none;stroke:#565555;stroke-width:0.8;stroke-miterlimit:10;}
	.st1{fill:#565555;}
	.st2{fill:#FFFFFF;stroke:#58595B;stroke-width:0.5;stroke-miterlimit:10;}
	.st3{fill:none;stroke:#58595B;stroke-width:0.5;stroke-miterlimit:10;}
</style>
<path class="st0" d="M35,24.6H6.7c-1.4,0-2.7-1.3-2.7-2.7V4.6C4.1,3.2,5.3,2,6.7,2H35c1.4,0,2.7,1.3,2.7,2.7v17.3
	C37.7,23.3,36.6,24.6,35,24.6z"/>
<rect x="6.9" y="5.9" class="st1" width="27.8" height="1.1"/>
<rect x="6.9" y="10" class="st1" width="27.8" height="1.1"/>
<rect x="29" y="14.5" class="st2" width="5" height="5"/>
<rect x="21.7" y="14.5" class="st2" width="5" height="5"/>
<rect x="14.4" y="14.5" class="st2" width="5" height="5"/>
<rect x="6.9" y="14.5" class="st2" width="5" height="5"/>
<polyline class="st3" points="30.1,16.5 31.5,17.8 34.7,13.3 "/>
<polyline class="st3" points="23.1,16.5 24.3,17.8 27.6,13.3 "/>
<polyline class="st3" points="15.7,16.5 17.1,17.8 20.4,13.3 "/>
</svg>
