<?xml version="1.0" encoding="utf-8"?>
<!-- Generator: Adobe Illustrator 21.0.0, SVG Export Plug-In . SVG Version: 6.00 Build 0)  -->
<svg version="1.1" id="Layer_1" xmlns="http://www.w3.org/2000/svg" xmlns:xlink="http://www.w3.org/1999/xlink" x="0px" y="0px"
	 viewBox="0 0 42.5 28.4" style="enable-background:new 0 0 42.5 28.4;" xml:space="preserve">
<style type="text/css">
	.st0{fill:none;stroke:#565555;stroke-width:0.8;stroke-miterlimit:10;}
	.st1{fill:none;stroke:#565555;stroke-width:0.3;stroke-miterlimit:10;}
	.st2{fill:#3A3A3A;}
	.st3{font-family:'Rockwell-ExtraBold';}
	.st4{font-size:1.5742px;}
</style>
<path class="st0" d="M37.6,18.8H6.4c-0.9,0-1.7-0.8-1.7-1.7V9.7C4.7,8.8,5.5,8,6.4,8h31c0.9,0,1.7,0.8,1.7,1.7v7.4
	C39.3,18.1,38.6,18.8,37.6,18.8z"/>
<circle class="st1" cx="8.8" cy="15.1" r="1.6"/>
<path class="st1" d="M36,15.9H10.4c-0.5,0,0-0.2,0-0.6l0,0c0-0.5-0.2-0.8,0-0.9H36c0.5,0,0.8,0.3,0.8,0.8l0,0
	C36.8,15.5,36.4,15.9,36,15.9z"/>
<text transform="matrix(1 0 0 1 8.2231 11.7294)" class="st2 st3 st4">0          1          2          3           4           5</text>
</svg>
