<?xml version="1.0" encoding="utf-8"?>
<!-- Generator: Adobe Illustrator 21.0.0, SVG Export Plug-In . SVG Version: 6.00 Build 0)  -->
<svg version="1.1" id="Layer_1" xmlns="http://www.w3.org/2000/svg" xmlns:xlink="http://www.w3.org/1999/xlink" x="0px" y="0px"
	 viewBox="0 0 42.5 28.4" style="enable-background:new 0 0 42.5 28.4;" xml:space="preserve">
<style type="text/css">
	.st0{fill:none;stroke:#565555;stroke-width:0.8;stroke-miterlimit:10;}
	.st1{fill:#FFFFFF;stroke:#58595B;stroke-width:0.5;stroke-miterlimit:10;}
	.st2{fill:none;stroke:#58595B;stroke-width:0.5;stroke-miterlimit:10;}
	.st3{fill:#565555;}
</style>
<path class="st0" d="M34,25H8c-1.3,0-2.5-1.2-2.5-2.5V6.6c0-1.3,1.2-2.5,2.5-2.5h26c1.3,0,2.5,1.2,2.5,2.5v15.9
	C36.5,23.8,35.4,25,34,25z"/>
<rect x="28.5" y="6.4" class="st1" width="4.6" height="4.6"/>
<rect x="22" y="6.4" class="st1" width="4.6" height="4.6"/>
<rect x="15.4" y="6.4" class="st1" width="4.6" height="4.6"/>
<rect x="8.4" y="6.4" class="st1" width="4.6" height="4.6"/>
<polyline class="st2" points="29.5,8.2 30.8,9.4 33.7,5.2 "/>
<rect x="28.9" y="18.6" class="st1" width="4.6" height="4.6"/>
<rect x="22.1" y="18.6" class="st1" width="4.6" height="4.6"/>
<rect x="15.5" y="18.6" class="st1" width="4.6" height="4.6"/>
<rect x="8.6" y="18.6" class="st1" width="4.6" height="4.6"/>
<polyline class="st2" points="23.4,20.5 24.6,21.7 27.6,17.5 "/>
<polyline class="st2" points="16.7,20.5 18,21.7 21,17.5 "/>
<circle class="st3" cx="31.5" cy="14.6" r="2.6"/>
<circle class="st2" cx="17.8" cy="14.6" r="2.3"/>
<circle class="st2" cx="24.6" cy="14.6" r="2.3"/>
<circle class="st2" cx="10.4" cy="14.6" r="2.3"/>
</svg>
