<?xml version="1.0" encoding="utf-8"?>
<!-- Generator: Adobe Illustrator 21.0.0, SVG Export Plug-In . SVG Version: 6.00 Build 0)  -->
<svg version="1.1" id="Layer_1" xmlns="http://www.w3.org/2000/svg" xmlns:xlink="http://www.w3.org/1999/xlink" x="0px" y="0px"
	 viewBox="0 0 42.5 28.4" style="enable-background:new 0 0 42.5 28.4;" xml:space="preserve">
<style type="text/css">
	.st0{fill:none;stroke:#3A3A3A;stroke-miterlimit:10;}
	.st1{fill:#3A3A3A;}
</style>
<circle class="st0" cx="21.8" cy="14.3" r="10.3"/>
<path class="st1" d="M21.8,15.4L21.8,15.4c-0.2,0-0.4-0.1-0.4-0.4V8.6c0-0.2,0.1-0.4,0.4-0.4l0,0c0.2,0,0.4,0.1,0.4,0.4v6.5
	C22.3,15.3,22.1,15.4,21.8,15.4z"/>
<path class="st1" d="M25.7,19.6L25.7,19.6c-0.2,0.2-0.6,0.1-0.9-0.1l-3.1-3.8c-0.2-0.2-0.1-0.6,0.1-0.9l0,0c0.2-0.2,0.6-0.1,0.9,0.1
	l3.1,3.8C25.9,19,25.9,19.4,25.7,19.6z"/>
<path class="st1" d="M22,15.1L22,15.1c0.1,0.1,0.1,0,0.2,0l5.3-6.4V8.6l0,0h-0.1L22.1,15C21.8,15,21.8,15.1,22,15.1z"/>
</svg>
