<?xml version="1.0" encoding="utf-8"?>
<!-- Generator: Adobe Illustrator 21.0.0, SVG Export Plug-In . SVG Version: 6.00 Build 0)  -->
<svg version="1.1" id="Layer_1" xmlns="http://www.w3.org/2000/svg" xmlns:xlink="http://www.w3.org/1999/xlink" x="0px" y="0px"
	 viewBox="0 0 42.5 28.4" style="enable-background:new 0 0 42.5 28.4;" xml:space="preserve">
<style type="text/css">
	.st0{fill:none;stroke:#565555;stroke-width:0.8;stroke-miterlimit:10;}
	.st1{fill:#565555;}
</style>
<path class="st0" d="M33.1,25H8.9c-1.2,0-2.3-1.1-2.3-2.3V7.9c0-1.2,1.1-2.3,2.3-2.3h24.2c1.2,0,2.3,1.1,2.3,2.3v14.8
	C35.4,23.9,34.5,25,33.1,25z"/>
<rect x="11.7" y="9.2" class="st1" width="4.7" height="3"/>
<rect x="18.9" y="9.2" class="st1" width="4.7" height="3"/>
<rect x="26.3" y="9.2" class="st1" width="4.7" height="3"/>
<rect x="11.7" y="14.1" class="st1" width="4.7" height="3"/>
<rect x="18.9" y="14.1" class="st1" width="4.7" height="3"/>
<rect x="26.1" y="14.1" class="st1" width="4.7" height="3"/>
<rect x="11.7" y="18.9" class="st1" width="4.7" height="3"/>
<rect x="18.9" y="18.9" class="st1" width="4.7" height="3"/>
<rect x="26.1" y="18.9" class="st1" width="4.7" height="3"/>
<path class="st1" d="M11.3,6.9L11.3,6.9c-0.4,0-0.8-0.3-0.8-0.8V3.4c0-0.4,0.3-0.8,0.8-0.8l0,0c0.4,0,0.8,0.3,0.8,0.8v2.7
	C12,6.7,11.7,6.9,11.3,6.9z"/>
<path class="st1" d="M31,6.9L31,6.9c-0.4,0-0.8-0.3-0.8-0.8V3.4c0-0.4,0.3-0.8,0.8-0.8l0,0c0.4,0,0.8,0.3,0.8,0.8v2.7
	C31.6,6.7,31.4,6.9,31,6.9z"/>
<path class="st1" d="M21.2,6.9L21.2,6.9c-0.4,0-0.8-0.3-0.8-0.8V3.4c0-0.4,0.3-0.8,0.8-0.8l0,0c0.4,0,0.8,0.3,0.8,0.8v2.7
	C21.8,6.7,21.6,6.9,21.2,6.9z"/>
</svg>
