<?xml version="1.0" encoding="utf-8"?>
<!-- Generator: Adobe Illustrator 21.0.0, SVG Export Plug-In . SVG Version: 6.00 Build 0)  -->
<svg version="1.1" id="Layer_1" xmlns="http://www.w3.org/2000/svg" xmlns:xlink="http://www.w3.org/1999/xlink" x="0px" y="0px"
	 viewBox="0 0 56.7 56.7" style="enable-background:new 0 0 56.7 56.7;" xml:space="preserve">
<style type="text/css">
	.st0{fill:#4A148C;}
	.st1{fill:#5E1EBA;}
	.st2{fill:#7E39EA;}
	.st3{fill:#FFFFFF;}
</style>
<circle class="st0" cx="29.9" cy="28.3" r="22.2"/>
<path class="st1" d="M51.8,24.8c0,0-1.6,4.6-8.7,1.2c0,0-11.8-6.3-20.4-2.7c0,0-16.5,7.2-14.5,0.2c0,0,3.7-17.4,21.4-17.4
	C29.6,6.1,47.8,5.5,51.8,24.8z"/>
<path class="st2" d="M14.4,12.5c0,0,14-13.4,30.4-0.8l2.5,2.7C47.2,14.5,22.9,2.5,14.4,12.5L14.4,12.5z"/>
<path class="st3" d="M30.7,42.8h-2.3c-1.6,0-2.8-1.3-2.8-2.8V16.7c0-1.6,1.3-2.8,2.8-2.8h2.3c1.6,0,2.8,1.3,2.8,2.8V40
	C33.5,41.5,32.2,42.8,30.7,42.8z"/>
<path class="st3" d="M44,26.9v2.3c0,1.6-1.3,2.8-2.8,2.8H17.9c-1.6,0-2.8-1.3-2.8-2.8v-2.3c0-1.6,1.3-2.8,2.8-2.8h23.3
	C42.7,24.1,44,25.3,44,26.9z"/>
</svg>
